<?xml version="1.0" encoding="utf-8"?>
<!-- Generator: Adobe Illustrator 27.2.0, SVG Export Plug-In . SVG Version: 6.00 Build 0)  -->
<svg version="1.1" id="Layer_1" xmlns="http://www.w3.org/2000/svg" xmlns:xlink="http://www.w3.org/1999/xlink" x="0px" y="0px"
	 viewBox="0 0 120.33 100" style="enable-background:new 0 0 120.33 100;" xml:space="preserve">
<style type="text/css">
	.st0{fill:#FFFFFF;}
</style>
<g>
	<path class="st0" d="M2.75,37.69h11.07v3.3H6.86v3.19h6.55v3.09H6.86v3.27h6.96v3.3H2.75V37.69z"/>
	<path class="st0" d="M13.85,37.69h4.75l4.05,10.56h0.07l4.05-10.56h4.75v16.15H27.9v-10.1h-0.09l-3.95,10.1H21.5l-3.95-10.1h-0.09
		v10.1h-3.62V37.69z"/>
	<path class="st0" d="M31.66,37.69h6.88c3.6,0,5.93,2.26,5.93,5.72v0.02c0,3.46-2.33,5.68-5.93,5.68h-2.78v4.74h-4.11V37.69z
		 M35.77,40.83v5.18h1.79c1.74,0,2.77-0.91,2.77-2.59v-0.02c0-1.68-1.03-2.57-2.77-2.57H35.77z"/>
	<path class="st0" d="M42.99,37.69h4.24l2.19,10.68h0.08l2.62-10.68h3.45l2.62,10.68h0.08l2.19-10.68h4.24l-4.22,16.15h-4.04
		l-2.56-9.69H53.8l-2.55,9.69h-4.04L42.99,37.69z"/>
	<path class="st0" d="M64.1,37.69h7c3.91,0,6.11,1.94,6.11,5.36v0.02c0,2.07-1.07,3.86-2.75,4.59l3.24,6.18h-4.61l-2.78-5.56H68.2
		v5.56H64.1V37.69z M70.63,45.3c1.46,0,2.38-0.87,2.38-2.24v-0.02c0-1.35-0.96-2.25-2.41-2.25H68.2v4.51H70.63z"/>
</g>
<g>
	<path class="st0" d="M79.85,41.48h7.47v1.06h-6.3v4.45h5.99v1.05h-5.99v4.75h6.3v1.06h-7.47V41.48z"/>
	<path class="st0" d="M88.31,44.94h1.2l2.71,7.73h0.03l2.72-7.73h1.19l-3.31,8.92h-1.21L88.31,44.94z"/>
	<path class="st0" d="M96.55,49.42L96.55,49.42c0-2.8,1.58-4.65,3.96-4.65c2.39,0,3.89,1.78,3.89,4.45v0.45h-6.7
		c0.03,2.13,1.17,3.34,2.93,3.34c1.31,0,2.22-0.66,2.51-1.63l0.02-0.08h1.12l-0.02,0.09c-0.31,1.53-1.73,2.63-3.66,2.63
		C98.11,54.02,96.55,52.24,96.55,49.42z M97.72,48.77h5.54c-0.13-1.95-1.23-2.98-2.75-2.98C98.99,45.78,97.86,46.87,97.72,48.77z"/>
	<path class="st0" d="M105.93,44.94h1.13v1.52h0.03c0.45-0.96,1.45-1.67,2.89-1.67c1.97,0,3.14,1.27,3.14,3.36v5.71h-1.13v-5.52
		c0-1.66-0.82-2.54-2.34-2.54c-1.55,0-2.59,1.11-2.59,2.78v5.28h-1.13V44.94z"/>
	<path class="st0" d="M115.51,51.76v-5.87h-1.31v-0.95h1.31v-2.41h1.17v2.41h1.77v0.95h-1.77v5.86c0,0.99,0.42,1.32,1.25,1.32
		c0.21,0,0.39-0.03,0.51-0.04v0.93c-0.18,0.03-0.47,0.07-0.75,0.07C116.23,54.02,115.51,53.32,115.51,51.76z"/>
</g>
</svg>
