<?xml version="1.0" standalone="no"?>
<!DOCTYPE svg PUBLIC "-//W3C//DTD SVG 20010904//EN"
 "http://www.w3.org/TR/2001/REC-SVG-20010904/DTD/svg10.dtd">
<svg version="1.0" xmlns="http://www.w3.org/2000/svg"
 width="300.000000pt" height="300.000000pt" viewBox="0 0 300.000000 300.000000"
 preserveAspectRatio="xMidYMid meet">
<metadata>
Created by potrace 1.14, written by Peter Selinger 2001-2017
</metadata>
<g transform="translate(0.000000,300.000000) scale(0.100000,-0.100000)"
fill="#000000" stroke="none">
<path d="M10 1500 l0 -1500 1495 0 1495 0 0 1500 0 1500 -1495 0 -1495 0 0
-1500z m1595 260 c3 -5 -3 -10 -14 -10 -12 0 -21 -4 -21 -10 0 -5 7 -10 15
-10 8 0 15 -4 15 -10 0 -5 -7 -10 -15 -10 -23 0 -18 -18 8 -23 16 -3 13 -5
-10 -6 -33 -1 -33 0 -33 44 0 41 2 45 24 45 14 0 28 -4 31 -10z m55 -22 l11
-33 14 33 c8 18 19 31 25 27 13 -8 13 -85 0 -85 -5 0 -10 8 -10 17 0 15 -2 14
-15 -3 -15 -19 -15 -19 -27 1 -11 19 -11 19 -19 0 -5 -14 -8 -5 -8 28 -1 54
12 61 29 15z m144 16 c33 -32 14 -77 -30 -72 -24 2 -30 8 -32 33 -3 19 2 33
14 42 23 17 29 16 48 -3z m91 6 c3 -5 -1 -10 -9 -10 -12 0 -16 -10 -16 -35 0
-19 -4 -35 -10 -35 -5 0 -10 16 -10 35 0 19 -4 35 -10 35 -5 0 -10 5 -10 10 0
6 13 10 29 10 17 0 33 -4 36 -10z m35 -35 c0 -25 -4 -45 -10 -45 -11 0 -14 73
-3 83 11 12 13 8 13 -38z m84 32 c26 -19 18 -71 -12 -75 -46 -7 -69 40 -36 72
19 19 25 20 48 3z m96 -14 c0 16 4 26 10 22 6 -3 10 -24 10 -46 0 -47 -18 -51
-42 -11 l-17 27 -1 -27 c0 -16 -4 -28 -10 -28 -11 0 -14 73 -3 84 4 4 18 -5
30 -21 l23 -28 0 28z m98 -18 c13 -39 8 -61 -8 -35 -8 12 -13 13 -30 3 -29
-19 -30 -17 -13 32 18 54 33 54 51 0z m52 0 c0 -27 4 -34 23 -38 16 -3 13 -5
-10 -6 -33 -1 -33 0 -33 45 0 27 4 43 10 39 6 -3 10 -21 10 -40z m-682 -142
l10 -28 11 28 c16 42 31 32 30 -20 -1 -39 -2 -43 -9 -23 l-8 25 -7 -22 c-4
-13 -11 -23 -16 -23 -6 0 -14 10 -19 23 l-9 22 0 -22 c-2 -44 -21 -23 -21 22
0 52 22 62 38 18z m182 18 c0 -5 -10 -12 -22 -14 l-23 -4 24 -8 25 -8 -25 -10
c-22 -9 -23 -10 -4 -14 38 -9 40 -23 2 -23 -36 0 -37 1 -37 38 0 21 3 42 7 45
10 10 53 8 53 -2z m107 -18 l18 -27 6 29 c6 25 7 22 8 -17 1 -55 -7 -60 -31
-20 l-17 27 -1 -27 c0 -16 -4 -28 -10 -28 -5 0 -10 20 -10 45 0 51 12 57 37
18z m163 17 c0 -5 -4 -10 -10 -10 -5 0 -10 -16 -10 -35 0 -19 -4 -35 -10 -35
-5 0 -10 16 -10 35 0 19 -4 35 -10 35 -5 0 -10 5 -10 10 0 6 14 10 30 10 17 0
30 -4 30 -10z m127 -35 c7 -21 10 -41 7 -44 -4 -3 -9 0 -11 7 -5 14 -43 16
-43 2 0 -5 -4 -10 -10 -10 -14 0 -13 15 5 56 18 44 34 40 52 -11z m93 10 c0
-28 4 -35 20 -35 11 0 20 -4 20 -10 0 -5 -13 -10 -30 -10 -29 0 -30 2 -30 45
0 25 5 45 10 45 6 0 10 -16 10 -35z m-652 -163 c3 -17 -2 -25 -17 -29 -12 -3
-21 -11 -21 -19 0 -7 -4 -16 -10 -19 -6 -4 -10 13 -10 45 0 50 1 51 28 48 19
-2 28 -9 30 -26z m62 8 c0 -12 7 -20 16 -20 9 0 18 9 21 20 9 36 23 21 23 -24
0 -47 -16 -72 -22 -34 -4 29 -38 38 -38 9 0 -11 -4 -23 -10 -26 -6 -4 -10 13
-10 44 0 28 5 51 10 51 6 0 10 -9 10 -20z m114 4 c6 -16 8 -16 24 0 28 24 33
19 18 -16 -8 -18 -17 -42 -21 -53 -6 -17 -8 -15 -19 15 -8 19 -17 43 -21 53
-4 9 -3 17 3 17 5 0 13 -7 16 -16z m141 6 c3 -5 -3 -10 -14 -10 -27 0 -27 -16
-1 -23 24 -6 27 -42 4 -51 -15 -6 -54 9 -54 20 0 4 11 3 25 0 14 -4 25 -2 25
4 0 5 -4 10 -8 10 -5 0 -17 6 -27 14 -16 12 -17 16 -6 30 15 18 47 21 56 6z
m65 -34 c0 -25 -4 -48 -10 -51 -6 -4 -10 13 -10 44 0 28 5 51 10 51 6 0 10
-20 10 -44z m108 26 c3 -9 -3 -11 -21 -7 -30 8 -46 -21 -23 -43 12 -13 18 -13
30 -2 13 10 16 10 16 -3 0 -24 -38 -32 -61 -11 -22 19 -24 36 -8 65 12 23 59
23 67 1z m98 -17 c7 -19 14 -42 14 -51 0 -16 -2 -16 -20 1 -19 17 -21 17 -41
-1 -22 -19 -22 -19 -15 8 20 85 39 98 62 43z m74 -11 c0 -28 4 -34 21 -34 11
0 17 -4 14 -10 -3 -5 -17 -10 -31 -10 -22 0 -24 4 -24 51 0 31 4 48 10 44 6
-3 10 -22 10 -41z m-710 -124 c0 -11 5 -20 10 -20 6 0 10 6 10 14 0 24 21 30
27 7 7 -27 23 -27 23 -1 0 11 5 20 11 20 11 0 5 -63 -7 -82 -9 -15 -25 -8 -33
14 l-8 23 -7 -23 c-7 -22 -21 -29 -30 -14 -12 19 -18 82 -7 82 6 0 11 -9 11
-20z m180 10 c0 -5 -9 -10 -20 -10 -25 0 -27 -20 -2 -21 16 -1 16 -2 0 -6 -26
-6 -22 -31 5 -36 16 -3 13 -5 -10 -6 -33 -1 -33 0 -33 44 0 43 1 45 30 45 17
0 30 -4 30 -10z m50 -35 c0 -27 4 -34 23 -38 16 -3 13 -5 -10 -6 -33 -1 -33 0
-33 45 0 27 4 43 10 39 6 -3 10 -21 10 -40z m80 10 c0 -28 5 -38 23 -45 20 -8
19 -9 -10 -9 -32 -1 -33 0 -33 44 0 25 5 45 10 45 6 0 10 -16 10 -35z m109 8
l20 -28 1 28 c0 15 5 27 10 27 6 0 10 -20 10 -45 0 -51 -17 -60 -43 -22 l-16
22 0 -22 c-1 -44 -21 -23 -21 22 0 52 10 56 39 18z m131 17 c0 -5 -9 -10 -20
-10 -28 0 -25 -20 3 -21 l22 -2 -22 -4 c-13 -2 -23 -11 -23 -18 0 -7 10 -16
23 -18 16 -3 13 -5 -10 -6 -33 -1 -33 0 -33 44 0 43 1 45 30 45 17 0 30 -4 30
-10z m85 1 c3 -5 -5 -12 -17 -14 l-23 -4 23 -8 c14 -5 22 -15 22 -31 0 -20 -5
-24 -29 -24 -17 0 -33 5 -37 12 -5 8 0 9 14 6 27 -7 40 10 15 19 -23 8 -32 23
-26 40 6 15 49 18 58 4z m90 -1 c3 -6 -4 -10 -17 -11 l-23 0 23 -16 c33 -23
29 -53 -6 -53 -32 0 -44 8 -36 22 3 5 11 4 19 -2 9 -8 15 -8 20 0 3 5 -2 13
-12 17 -25 9 -34 25 -21 40 12 15 44 17 53 3z m-668 -210 l3 -45 -20 25 -20
25 0 -22 c0 -13 -4 -23 -10 -23 -5 0 -10 21 -10 46 0 44 1 45 28 42 25 -3 27
-7 29 -48z m83 40 c0 -5 -10 -10 -22 -11 -22 0 -22 -1 2 -11 25 -11 25 -11 3
-15 -28 -5 -30 -23 -3 -23 11 0 20 -4 20 -10 0 -5 -13 -10 -30 -10 -29 0 -30
2 -30 45 0 43 1 45 30 45 17 0 30 -4 30 -10z m75 0 c3 -6 -4 -10 -17 -11 l-23
0 23 -11 c12 -6 22 -19 22 -29 0 -19 -33 -35 -50 -24 -18 11 -11 23 10 18 11
-3 20 -1 20 5 0 5 -9 12 -20 15 -30 8 -27 47 4 47 14 0 28 -4 31 -10z m45 -35
c0 -25 -4 -45 -10 -45 -5 0 -10 20 -10 45 0 25 5 45 10 45 6 0 10 -20 10 -45z
m40 10 c0 -28 4 -35 20 -35 11 0 20 -4 20 -10 0 -5 -13 -10 -30 -10 -29 0 -30
2 -30 45 0 25 5 45 10 45 6 0 10 -16 10 -35z m80 -4 c0 -22 -4 -43 -10 -46 -6
-4 -10 12 -10 39 0 25 5 46 10 46 6 0 10 -18 10 -39z m80 29 c0 -5 -10 -11
-22 -11 -17 -1 -19 -2 -5 -6 21 -5 23 -23 2 -23 -8 0 -15 -4 -15 -10 0 -5 9
-10 20 -10 11 0 20 -4 20 -10 0 -5 -13 -10 -30 -10 -29 0 -30 2 -30 45 0 43 1
45 30 45 17 0 30 -4 30 -10z m54 -12 l16 -22 0 22 c0 12 5 22 10 22 6 0 10
-20 10 -45 0 -51 -13 -58 -34 -17 l-15 27 -1 -27 c0 -16 -4 -28 -10 -28 -5 0
-10 20 -10 45 0 50 11 57 34 23z m126 7 c0 -5 -10 -10 -23 -10 -15 0 -22 -6
-22 -20 0 -16 6 -20 29 -18 27 2 28 1 14 -13 -10 -10 -24 -14 -36 -10 -46 15
-33 90 14 84 14 -2 24 -7 24 -13z m80 5 c0 -5 -10 -11 -22 -11 l-23 -2 23 -4
c12 -2 22 -8 22 -13 0 -4 -10 -11 -22 -15 l-23 -8 23 -4 c32 -6 27 -25 -5 -21
-25 3 -28 7 -31 46 -3 41 -2 42 27 42 17 0 31 -4 31 -10z"/>
<path d="M1764 1736 c-8 -22 3 -49 19 -43 6 2 12 14 12 27 0 27 -22 39 -31 16z"/>
<path d="M1973 1734 c-3 -8 1 -23 10 -32 15 -14 17 -14 23 1 8 21 -1 47 -16
47 -6 0 -13 -7 -17 -16z"/>
<path d="M2120 1570 c0 -5 5 -10 11 -10 5 0 7 5 4 10 -3 6 -8 10 -11 10 -2 0
-4 -4 -4 -10z"/>
<path d="M1560 1410 c0 -5 5 -10 10 -10 6 0 10 5 10 10 0 6 -4 10 -10 10 -5 0
-10 -4 -10 -10z"/>
<path d="M2150 1390 c0 -5 5 -10 10 -10 6 0 10 5 10 10 0 6 -4 10 -10 10 -5 0
-10 -4 -10 -10z"/>
<path d="M1570 1094 c0 -8 5 -12 10 -9 6 4 8 11 5 16 -9 14 -15 11 -15 -7z"/>
</g>
</svg>
